<svg viewBox="0 0 96 96" xmlns="http://www.w3.org/2000/svg" xmlns:xlink="http://www.w3.org/1999/xlink" id="Icons_SyncingCloud" overflow="hidden"><path d="M63.53 49.26 57.05 55.74 50.56 49.26 54.18 49.26C52.9555 46.8748 50.5011 45.3736 47.82 45.37 46.0902 45.3719 44.4212 46.0089 43.13 47.16L36.54 47.16C39.4757 40.9239 46.9109 38.2485 53.1469 41.1842 56.4749 42.7509 58.9423 45.7059 59.89 49.26Z" fill="#595959"/><path d="M32.15 55.74 38.64 49.26 45.12 55.74 41.47 55.74C42.6911 58.1236 45.1418 59.6249 47.82 59.63 49.5531 59.6296 51.2257 58.9926 52.52 57.84L59.14 57.84C56.1947 64.0837 48.7455 66.7577 42.5018 63.8124 39.1768 62.2439 36.7108 59.2913 35.76 55.74Z" fill="#595959"/><path d="M78.73 76C87.3653 75.7956 94.1999 68.6296 93.9956 59.9943 93.8152 52.3757 88.1701 45.9961 80.63 44.89 79.8332 39.9997 77.1469 35.6183 73.15 32.69 69.0134 29.7585 63.8469 28.6723 58.88 29.69 53.9935 22.1456 44.8806 18.5028 36.14 20.6 27.621 22.7939 21.2554 29.8931 20 38.6 14.3248 38.7524 9.03265 41.498 5.64 46.05 1.62015 51.6339 0.888078 58.9394 3.72 65.21 6.60674 71.3908 12.6499 75.4913 19.46 75.89ZM19.73 69.68C15.2051 69.395 11.1936 66.6709 9.26 62.57 7.38374 58.3901 7.86725 53.5285 10.53 49.8 13.2524 46.1376 17.7824 44.2887 22.29 45L25.84 45.59 25.84 41.67C25.8747 34.5877 30.6878 28.4223 37.55 26.67 44.4356 25.0098 51.5547 28.3287 54.71 34.67L55.92 37.08 58.43 36.19C62.1855 34.8631 66.3517 35.445 69.6 37.75 72.8296 40.1158 74.7416 43.8766 74.75 47.88L74.75 51 78.83 51C84.0123 51.1946 88.0557 55.5534 87.8611 60.7357 87.6754 65.6835 83.6796 69.637 78.73 69.77Z" fill="#595959"/></svg>